<svg xmlns="http://www.w3.org/2000/svg" viewBox="0 0 56 56" class="design-iconfont">
  <g stroke-width="4" fill="none" fill-rule="evenodd">
    <path d="M33.3577061,7.14414709 C33.842438,6.97976975 34.3898778,7.0003114 34.8851314,7.24473369 C35.2795566,7.43939417 35.5988117,7.75864921 35.7934722,8.15307442 L41.2681949,19.2460743 C42.142167,21.0169351 43.8315605,22.2443514 45.7858214,22.5283221 L58.0276736,24.3071674 C58.5742185,24.386585 59.0368316,24.6800152 59.3429542,25.0902273 C59.6490767,25.5004393 59.7987086,26.0274332 59.719291,26.573978 C59.656042,27.0092521 59.4510676,27.4115369 59.1361004,27.7185541 L50.2778129,36.3532503 C48.8636964,37.7316733 48.2184055,39.7176745 48.5522331,41.6640389 L50.6433911,53.8564256 C50.7367521,54.400762 50.6006387,54.9314082 50.3051009,55.3493105 C50.0095632,55.7672129 49.554601,56.0723713 49.0102646,56.1657323 C48.5767493,56.240086 48.1308132,56.1694567 47.7414922,55.9647785 L36.7920468,50.2083144 C35.0441026,49.2893658 32.9558974,49.2893658 31.2079532,50.2083144 L20.2585078,55.9647785 C19.7696632,56.2217793 19.2229273,56.2563065 18.7341524,56.1043723 C18.2453775,55.9524381 17.8145635,55.6140425 17.5575627,55.1251979 C17.3528845,54.735877 17.2822552,54.2899408 17.3566089,53.8564256 L19.4477669,41.6640389 C19.7815945,39.7176745 19.1363036,37.7316733 17.7221871,36.3532503 L8.86389963,27.7185541 C8.46841605,27.3330529 8.26662811,26.8237457 8.26008637,26.3119428 C8.25354462,25.80014 8.44224907,25.2858416 8.82775029,24.890358 C9.1347675,24.5753907 9.53705232,24.3704164 9.97232638,24.3071674 L22.2141786,22.5283221 C24.1684395,22.2443514 25.857833,21.0169351 26.7318051,19.2460743 L32.2065278,8.15307442 C32.4509501,7.65782077 32.8729742,7.30852444 33.3577061,7.14414709 Z" stroke="#212121" transform="translate(-6 -3)"/>
    <path d="M37.3876696,36.1419462 L41.1654474,41.8086128" stroke="#BE172C" stroke-linecap="round" stroke-linejoin="round" transform="rotate(17 46.31329336 17.40181129)"/>
  </g>
</svg>
